<svg id="illustration_layer_copy_5" data-name="illustration_layer copy 5" xmlns="http://www.w3.org/2000/svg" viewBox="0 0 400 400"><defs><style>.cls-21{fill:#2b2b2b}.cls-2{fill:#1c7678}.cls-3{fill:#165e60}.cls-4{fill:#369395}.cls-5{fill:#50a8a9}.cls-7{fill:#27788b}.cls-8{fill:#5ebfd8}.cls-14{fill:#fce3d4}.cls-15{fill:#f4c9b2}.cls-16{fill:#c1907d}.cls-18{fill:#5f5044}.cls-22{fill:#72cacb}.cls-23{fill:#3a9fb9}</style></defs><path opacity=".1" fill="#2b2b2b" d="M111.62 386.8l101.15-15.37 88.74 16L206.56 400l-94.94-13.2z"/><path class="cls-2" d="M170.34 175.81l-31.99 49.86 29.27 7.17 5.39-27.71-2.67-29.32z"/><path class="cls-3" d="M265.9 258.32l11.91 27.23-25.42 11.06-7.75-5.95 11.34-20.76 9.92-11.58z"/><path class="cls-2" d="M207.24 308.59l-11.53 26.68-19.07-1.88-13.31-9.52 1.41-35.96 31.5-4.08 11 24.76z"/><path class="cls-2" d="M207.24 308.59l13.82 30.23 17.66 4.61 16.7-8.16-3.33-42.57-10.97-29.6-33.88 45.49z"/><path class="cls-3" d="M189.64 293.7l17.6 14.89 33.88-35.63-33.88-12.69-20.78 20.49 3.18 12.94z"/><path class="cls-2" d="M266.64 177.04l23.04 71.89-34.7-4.28 11.66-67.61z"/><path class="cls-4" d="M127.28 54.29l16.4-15.31 8.46 1.18.91 18.4-25.77-4.27z"/><path class="cls-5" d="M149.24 54.59l9.81-46.86L212.77 0l3.81 34.42-3.81 35.69-63.53-15.52z"/><path fill="#318ea5" d="M262.38 150.09l-4.75 4.6-174.5 42.42-2.04-3.89.1-4.39 14.71-3.41 17.61-1.97 15.87-5.8 126.71-29.54 6.29 1.98z"/><path class="cls-7" d="M71.18 184.9l.27 10.61 4.47 9.61 7.21-8.01-1.94-8.28-10.01-3.93z"/><path class="cls-8" d="M75.92 205.12l-11.01-8.06 6.27-12.16 4.74 20.22z"/><path fill="#73cee4" d="M257.63 154.69l30.81-7.45-1.47-6.29-30.88 7.16 1.54 6.58z"/><path fill="#dcdcdb" d="M234.82 162.37l-4.39 27.91-21.26 47.47-12.42-46.59-4.07-28.28 17.77 8.68 24.37-9.19z"/><path fill="#4f5253" d="M201.11 182.01l6.13 8.18-6.98 12.1 8.91 15.98 12.45-14.06-9.34-13.85 7.48-8.2-10.23-6.85-8.42 6.7z"/><path fill="#fff" d="M209.53 175.31l17.59 18.13 7.7-11.39 3.71-17.09-28.36 7.65-20.75-8.95 3.2 16.58 3.78 10.54 13.13-15.47z"/><path class="cls-2" d="M212.77 0l46.55 18.54 2.05 54.88-48.6-9.14V0z"/><path fill="#8bdfdb" d="M152.14 40.16l60.63 8.2 5.27 6.23-3.51 8.63-12.56-.43-28.72-.55-24.01-7.65 2.9-14.43z"/><path class="cls-5" d="M212.77 48.36l33.02 4.46-33.02 11.46V48.36z"/><path class="cls-3" d="M201.97 62.79l43.82-9.97 33.15 19.43-17.57 21.48-5.86-14.42-53.54-16.52z"/><path class="cls-14" d="M156.56 61.53l-9 4.53-3.88 29.44 8.78 53.56 33.96 3.54 7.61 11.47 15.5 11.24 26.37-15.35 17.69-63.29-27.94-30.61-8.46 1.25-60.63-5.78z"/><path class="cls-15" d="M225.65 66.06l-16.7 88.82.58 20.43 29-10.35 22.84-71.23-35.72-27.67zM203.7 83.43l-28.11 25.61-26.35-30.02 54.46 4.41z"/><path class="cls-16" d="M147.56 66.06l76.72 7.65 5.93 3.23 23.38 7.81 2.8-9.34-30.74-9.35-76.7-10.59-1.39 10.59zm106.03 51.95l-12.13-2.5 7.5 16.94 4.63-14.44zm-7.44-7.8l3.51-12.36 6.73 1.18-10.24 11.18z"/><path fill="#46382d" d="M225.65 66.06l4.56 10.88 13.3 12.29 17.86 4.5V73.42l-35.72-7.36z"/><path class="cls-18" d="M239.71 111.69l6.44-20.02 15.22 2.06-31.16-16.79 5.69 13.55-5.12 19.72 8.93 1.48z"/><path fill="#ffefe7" d="M177.66 81.32l-2.07 27.72-9.22-.74 4.83-27.5 6.46.52z"/><path class="cls-18" d="M203.7 83.43l-1.61-3.38-17.86-3.1-6.57 4.37 26.04 2.11zm-32.5-2.63l-2.78-5.02-15.08.44-4.1 2.8 21.96 1.78zm-4.83 27.5l-13.32 11.77 3.51 2.95 13.91-3.97 17.86 6.76 6.29-2.5-19.03-14.27-9.22-.74z"/><path fill="#35291b" d="M175.59 109.04l-5.41 6.03-3.81-6.77 9.22.74z"/><ellipse class="cls-21" cx="188.76" cy="90.64" rx="3.8" ry="3.82"/><ellipse class="cls-21" cx="160.36" cy="87.99" rx="3.8" ry="3.82"/><path class="cls-16" d="M186.42 152.6l40.6 4.12-17.49 18.59-20.11-11.65-3-11.06zm-29.86-29.58l31.77 2.79v4.12l-31.77-2.79v-4.12z"/><path class="cls-22" d="M127.28 54.29l44.73 14.19 29.96-5.69-52.73-8.2-21.96-.3z"/><path class="cls-8" d="M200.26 202.29l8.91 11.89 4.58 41.15-4.58 17.19-4.55 11.23-13.33-8.43 8.97-73.03z"/><path class="cls-23" d="M209.17 214.18l12.45-9.97 19.5 68.75-25.34 10.79-6.61-11.23v-58.34z"/><path class="cls-4" d="M238.53 164.96l-14.87 37.11-14.49 35.68-1.93 5.4 1.93 6.51 31.95 23.3 16.21-17.86 2.22-14.37 7.09-63.69-20.77-7.01-4.2-1.1-3.14-3.97z"/><path class="cls-4" d="M189.42 163.66l-3 7.9-16.08 4.25-3.89 81.48 2.01 5.44-2.56 4.43-1.16 20.75 24.9 5.79 19.53-44.04v-11.91l-12.93-42.88-6.82-31.21z"/><path class="cls-2" d="M227.61 226.13l26.26 2.04.76-9.27-8.76-.21-13.97-1.7-4.29 9.14zm-61.16 31.16l20.14 4.76-2.2 8.85-18.49-3.74.55-9.87z"/><path class="cls-22" d="M211.72 243.79l2.79-4.6 3.73 4.6-4.11 3.7-2.41-3.7z"/><path class="cls-5" d="M289.68 248.93l-31.33 35.05-8.61-1.15-8.62-9.87 18.43-32.23 30.13 8.2z"/><path class="cls-14" d="M241.12 272.96l17.23 11.02-5.96 12.63-11.27-23.65z"/><path class="cls-3" d="M221.06 338.82l34.36-3.55 2.93 35.47-13.47 1.7-11.32-4.77-12.5-28.85zm-25.35-3.55l-32.38-11.4-1.42 36.6 11.87 6.62 11.6-1.85 10.33-29.97z"/><path class="cls-23" d="M233.56 367.67l-6.04 18.55 13.65 1.21 21.07-1.21-3.89-15.48-24.79-3.07z"/><path class="cls-7" d="M227.52 386.22h34.72v5.87h-34.72z"/><path class="cls-23" d="M161.91 360.47l-25.02 20.34 30.33 1.46 18.09-1.46.07-15.57-23.47-4.77z"/><path class="cls-7" d="M185.26 386.68h-9.02l-1.78-4.21-8.19 4.21h-29.44v-5.87h48.43v5.87z"/><path class="cls-5" d="M167.62 232.84l-33.53-31.45-11.74 2.75-6.18 6.25 22.42 32.89 29.03-10.44z"/><path class="cls-16" d="M116.17 210.39l-17.86-16.95 12.73-6.58h15.13l7.92 14.53-17.92 9z"/><path class="cls-15" d="M98.31 193.44l-2.41-8.02 22.77-14.76 3.9 8.43-.43 5.81-4.74 4.03-19.09 4.51z"/><path class="cls-14" d="M134.09 201.39l-4.71-23.74-14.26 3.25 2.28 8.03 8.77-2.07-7.91 9.73 6.61 9.43 9.22-4.63z"/><path class="cls-5" d="M238.53 164.96l7.34 5.07v30.03H231.9l13.97 18.63-36.7 19.06 29.36-72.79zm-49.11-1.3l-19.97 28.05 11.62 5.54-4.82 10.55 32.92 29.95-19.75-74.09z"/></svg>